<svg xmlns="http://www.w3.org/2000/svg" xmlns:xlink="http://www.w3.org/1999/xlink" width="40" zoomAndPan="magnify" viewBox="0 0 30 30.000001" height="40" preserveAspectRatio="xMidYMid meet" version="1.0"><defs><g/><clipPath id="5af6e2b1ea"><path d="M 0.484375 0 L 29.515625 0 L 29.515625 29.03125 L 0.484375 29.03125 Z M 0.484375 0 " clip-rule="nonzero"/></clipPath><clipPath id="9e5fea95eb"><path d="M 4 8.773438 L 9 8.773438 L 9 14 L 4 14 Z M 4 8.773438 " clip-rule="nonzero"/></clipPath><clipPath id="435ae24235"><path d="M 1.519531 14 L 8 14 L 8 28.371094 L 1.519531 28.371094 Z M 1.519531 14 " clip-rule="nonzero"/></clipPath><clipPath id="1fbc518088"><path d="M 9.894531 17.351562 L 18.933594 17.351562 L 18.933594 28.371094 L 9.894531 28.371094 Z M 9.894531 17.351562 " clip-rule="nonzero"/></clipPath></defs><g clip-path="url(#5af6e2b1ea)"><path fill="#ffffff" d="M 0.484375 0 L 29.515625 0 L 29.515625 29.03125 L 0.484375 29.03125 Z M 0.484375 0 " fill-opacity="1" fill-rule="nonzero"/><path fill="#d8c7bd" d="M 0.484375 0 L 29.515625 0 L 29.515625 29.03125 L 0.484375 29.03125 Z M 0.484375 0 " fill-opacity="1" fill-rule="nonzero"/></g><g clip-path="url(#9e5fea95eb)"><path fill="#000000" d="M 6.792969 13.011719 C 7.933594 13.011719 8.863281 12.058594 8.863281 10.890625 C 8.863281 9.722656 7.933594 8.773438 6.792969 8.773438 C 5.648438 8.773438 4.722656 9.722656 4.722656 10.890625 C 4.722656 12.058594 5.648438 13.011719 6.792969 13.011719 " fill-opacity="1" fill-rule="nonzero"/></g><path fill="#000000" d="M 12.203125 20.867188 C 12.195312 20.855469 12.1875 20.839844 12.183594 20.828125 C 12.078125 20.46875 11.757812 20.230469 11.390625 20.230469 L 5.875 20.230469 C 5.785156 20.230469 5.707031 20.164062 5.695312 20.070312 C 5.6875 19.96875 5.765625 19.878906 5.867188 19.878906 L 7.425781 19.878906 C 7.613281 19.878906 7.773438 19.742188 7.804688 19.550781 L 8.320312 16.328125 C 8.351562 16.136719 8.226562 15.957031 8.039062 15.925781 L 7.140625 15.761719 C 7.054688 15.746094 6.984375 15.667969 6.992188 15.574219 C 7 15.472656 7.09375 15.398438 7.195312 15.417969 L 11.1875 16.136719 C 11.4375 16.179688 11.691406 16.058594 11.820312 15.828125 C 11.828125 15.8125 11.839844 15.796875 11.851562 15.785156 L 14.09375 11.75 C 14.144531 11.660156 14.167969 11.558594 14.171875 11.457031 L 14.5 11.457031 C 15.089844 11.457031 15.125 11.316406 15.125 11.136719 C 15.125 10.960938 15.089844 10.816406 14.5 10.816406 L 9.722656 10.816406 C 9.605469 10.816406 9.515625 10.929688 9.542969 11.046875 C 9.597656 11.289062 9.722656 11.503906 9.898438 11.671875 C 10.121094 11.878906 10.40625 11.992188 10.703125 11.992188 C 11.101562 11.992188 11.464844 11.78125 11.683594 11.457031 L 12.863281 11.457031 L 11.042969 14.734375 C 11.007812 14.796875 10.933594 14.832031 10.863281 14.820312 L 8.253906 14.351562 C 8.253906 14.351562 8.253906 14.351562 8.25 14.351562 C 8.246094 14.351562 8.242188 14.347656 8.238281 14.347656 C 8.230469 14.34375 8.222656 14.34375 8.21875 14.339844 C 8.199219 14.332031 8.179688 14.320312 8.164062 14.304688 C 8.164062 14.304688 8.160156 14.300781 8.160156 14.300781 C 8.152344 14.292969 8.148438 14.285156 8.140625 14.277344 C 7.859375 13.847656 7.425781 13.5625 6.921875 13.480469 C 6.4375 13.398438 5.953125 13.515625 5.558594 13.804688 C 5.160156 14.097656 4.898438 14.53125 4.816406 15.023438 L 4.058594 19.75 C 3.980469 20.246094 4.09375 20.742188 4.378906 21.148438 C 4.664062 21.554688 5.089844 21.820312 5.570312 21.902344 C 5.613281 21.910156 5.652344 21.914062 5.695312 21.917969 L 5.867188 21.917969 C 5.886719 21.917969 5.902344 21.921875 5.917969 21.929688 L 7.859375 21.929688 C 7.875 21.921875 7.890625 21.917969 7.910156 21.917969 C 7.929688 21.917969 7.945312 21.921875 7.960938 21.929688 L 10.714844 21.929688 C 10.785156 21.929688 10.847656 21.972656 10.875 22.035156 L 12.980469 27.34375 C 13.085938 27.605469 13.308594 27.796875 13.59375 27.859375 C 13.695312 27.878906 13.800781 27.878906 13.902344 27.859375 C 14.183594 27.800781 14.40625 27.613281 14.515625 27.355469 C 14.601562 27.144531 14.601562 26.914062 14.519531 26.703125 L 12.203125 20.867188 " fill-opacity="1" fill-rule="nonzero"/><path fill="#000000" d="M 13.191406 15.535156 L 13.222656 15.746094 C 13.332031 16.550781 14.003906 17.148438 14.800781 17.148438 L 15.929688 17.148438 C 16.71875 17.148438 17.398438 16.546875 17.507812 15.746094 L 17.53125 15.578125 C 17.554688 15.417969 17.433594 15.277344 17.277344 15.277344 L 13.410156 15.277344 C 13.277344 15.277344 13.171875 15.398438 13.191406 15.535156 " fill-opacity="1" fill-rule="nonzero"/><g clip-path="url(#435ae24235)"><path fill="#000000" d="M 7.308594 22.382812 L 5.867188 22.382812 C 5.808594 22.382812 5.753906 22.378906 5.695312 22.375 L 5.6875 22.371094 L 3.265625 22.371094 C 2.933594 22.371094 2.664062 22.097656 2.664062 21.757812 L 2.664062 15.226562 C 2.664062 14.902344 2.410156 14.640625 2.09375 14.640625 C 1.777344 14.640625 1.519531 14.902344 1.519531 15.226562 L 1.519531 27.601562 C 1.519531 27.925781 1.777344 28.1875 2.09375 28.1875 C 2.410156 28.1875 2.664062 27.925781 2.664062 27.601562 L 2.664062 24.15625 C 2.664062 23.816406 2.933594 23.542969 3.265625 23.542969 L 6.136719 23.542969 C 6.46875 23.542969 6.738281 23.816406 6.738281 24.15625 L 6.738281 27.601562 C 6.738281 27.925781 6.992188 28.1875 7.308594 28.1875 C 7.625 28.1875 7.882812 27.925781 7.882812 27.601562 L 7.882812 22.964844 C 7.882812 22.644531 7.625 22.382812 7.308594 22.382812 " fill-opacity="1" fill-rule="nonzero"/></g><g clip-path="url(#1fbc518088)"><path fill="#000000" d="M 18.539062 17.355469 L 10.460938 17.355469 C 10.101562 17.355469 9.898438 17.53125 9.898438 17.757812 C 9.898438 17.984375 10.101562 18.160156 10.460938 18.160156 L 18.144531 18.160156 L 18.144531 27.96875 C 18.144531 28.191406 18.324219 28.371094 18.539062 28.371094 C 18.757812 28.371094 18.933594 28.191406 18.933594 27.96875 L 18.933594 17.757812 C 18.933594 17.535156 18.757812 17.355469 18.539062 17.355469 " fill-opacity="1" fill-rule="nonzero"/></g><g fill="#568e7a" fill-opacity="1"><g transform="translate(2.538209, 7.148613)"><g><path d="M 1.734375 -0.4375 L 3.265625 -0.4375 C 3.460938 -0.4375 3.632812 -0.519531 3.78125 -0.6875 C 3.9375 -0.851562 4.054688 -0.988281 4.140625 -1.09375 C 4.203125 -1.164062 4.265625 -1.203125 4.328125 -1.203125 C 4.441406 -1.203125 4.5 -1.148438 4.5 -1.046875 C 4.5 -1.015625 4.492188 -0.984375 4.484375 -0.953125 L 4.203125 0.078125 L 0.65625 0.078125 C 0.539062 0.078125 0.484375 0.0234375 0.484375 -0.078125 C 0.484375 -0.171875 0.546875 -0.238281 0.671875 -0.28125 C 0.804688 -0.332031 0.875 -0.421875 0.875 -0.546875 L 0.875 -4.75 C 0.875 -4.875 0.804688 -4.957031 0.671875 -5 C 0.546875 -5.050781 0.484375 -5.125 0.484375 -5.21875 C 0.484375 -5.320312 0.546875 -5.375 0.671875 -5.375 L 4.265625 -5.375 L 4.265625 -4.328125 C 4.265625 -4.222656 4.207031 -4.171875 4.09375 -4.171875 C 4.03125 -4.171875 3.957031 -4.234375 3.875 -4.359375 C 3.75 -4.535156 3.644531 -4.664062 3.5625 -4.75 C 3.476562 -4.832031 3.378906 -4.875 3.265625 -4.875 L 1.734375 -4.875 L 1.734375 -2.96875 L 2.515625 -2.96875 C 2.628906 -2.96875 2.710938 -3.03125 2.765625 -3.15625 C 2.816406 -3.289062 2.894531 -3.359375 3 -3.359375 C 3.113281 -3.359375 3.171875 -3.304688 3.171875 -3.203125 L 3.171875 -2.25 C 3.171875 -2.144531 3.113281 -2.09375 3 -2.09375 C 2.894531 -2.09375 2.8125 -2.15625 2.75 -2.28125 C 2.695312 -2.414062 2.609375 -2.484375 2.484375 -2.484375 L 1.734375 -2.484375 Z M 1.734375 -0.4375 "/></g></g></g><g fill="#568e7a" fill-opacity="1"><g transform="translate(9.017172, 7.148613)"><g><path d="M 3.234375 -5.46875 C 3.367188 -5.132812 3.53125 -4.75 3.71875 -4.3125 C 3.90625 -3.882812 4.097656 -3.441406 4.296875 -2.984375 C 4.492188 -2.535156 4.679688 -2.09375 4.859375 -1.65625 C 5.046875 -1.226562 5.207031 -0.867188 5.34375 -0.578125 C 5.375 -0.492188 5.4375 -0.421875 5.53125 -0.359375 C 5.582031 -0.328125 5.632812 -0.296875 5.6875 -0.265625 C 5.75 -0.242188 5.800781 -0.21875 5.84375 -0.1875 C 5.882812 -0.15625 5.910156 -0.128906 5.921875 -0.109375 C 5.929688 -0.0859375 5.9375 -0.0664062 5.9375 -0.046875 C 5.9375 -0.0234375 5.929688 -0.00390625 5.921875 0.015625 C 5.898438 0.0546875 5.851562 0.078125 5.78125 0.078125 L 4.515625 0.078125 C 4.460938 0.078125 4.414062 0.0625 4.375 0.03125 C 4.332031 0 4.3125 -0.0234375 4.3125 -0.046875 C 4.300781 -0.0664062 4.296875 -0.0859375 4.296875 -0.109375 C 4.296875 -0.148438 4.316406 -0.1875 4.359375 -0.21875 C 4.390625 -0.238281 4.414062 -0.257812 4.4375 -0.28125 C 4.46875 -0.3125 4.488281 -0.335938 4.5 -0.359375 C 4.5 -0.378906 4.5 -0.398438 4.5 -0.421875 C 4.5 -0.453125 4.492188 -0.488281 4.484375 -0.53125 L 3.9375 -1.765625 L 1.875 -1.765625 C 1.800781 -1.585938 1.71875 -1.390625 1.625 -1.171875 C 1.539062 -0.960938 1.453125 -0.75 1.359375 -0.53125 C 1.335938 -0.488281 1.328125 -0.445312 1.328125 -0.40625 C 1.328125 -0.394531 1.328125 -0.378906 1.328125 -0.359375 C 1.328125 -0.347656 1.328125 -0.332031 1.328125 -0.3125 C 1.335938 -0.28125 1.347656 -0.253906 1.359375 -0.234375 C 1.378906 -0.222656 1.394531 -0.195312 1.40625 -0.15625 C 1.40625 -0.132812 1.40625 -0.117188 1.40625 -0.109375 C 1.40625 -0.0859375 1.40625 -0.0703125 1.40625 -0.0625 C 1.375 0.03125 1.316406 0.078125 1.234375 0.078125 L 0.25 0.078125 C 0.1875 0.078125 0.140625 0.0507812 0.109375 0 C 0.109375 -0.0078125 0.101562 -0.0195312 0.09375 -0.03125 C 0.09375 -0.0507812 0.0976562 -0.0703125 0.109375 -0.09375 C 0.128906 -0.15625 0.1875 -0.203125 0.28125 -0.234375 C 0.320312 -0.253906 0.363281 -0.273438 0.40625 -0.296875 C 0.445312 -0.316406 0.488281 -0.34375 0.53125 -0.375 C 0.601562 -0.425781 0.660156 -0.492188 0.703125 -0.578125 L 2.859375 -5.46875 Z M 3.75 -2.234375 L 2.890625 -4.21875 C 2.785156 -3.976562 2.65625 -3.664062 2.5 -3.28125 C 2.34375 -2.894531 2.195312 -2.546875 2.0625 -2.234375 Z M 3.75 -2.234375 "/></g></g></g><g fill="#568e7a" fill-opacity="1"><g transform="translate(16.789017, 7.148613)"><g><path d="M 4.6875 -4.328125 C 4.6875 -4.222656 4.628906 -4.171875 4.515625 -4.171875 C 4.453125 -4.171875 4.375 -4.234375 4.28125 -4.359375 C 4.15625 -4.535156 4.050781 -4.664062 3.96875 -4.75 C 3.894531 -4.832031 3.796875 -4.875 3.671875 -4.875 L 2.8125 -4.875 L 2.8125 -0.546875 C 2.8125 -0.421875 2.875 -0.332031 3 -0.28125 C 3.125 -0.238281 3.1875 -0.171875 3.1875 -0.078125 C 3.1875 0.0234375 3.132812 0.078125 3.03125 0.078125 L 1.75 0.078125 C 1.632812 0.078125 1.578125 0.0234375 1.578125 -0.078125 C 1.578125 -0.171875 1.640625 -0.238281 1.765625 -0.28125 C 1.890625 -0.332031 1.953125 -0.421875 1.953125 -0.546875 L 1.953125 -4.875 L 1.078125 -4.875 C 0.960938 -4.875 0.863281 -4.832031 0.78125 -4.75 C 0.695312 -4.664062 0.59375 -4.535156 0.46875 -4.359375 C 0.375 -4.234375 0.296875 -4.171875 0.234375 -4.171875 C 0.117188 -4.171875 0.0625 -4.222656 0.0625 -4.328125 L 0.0625 -5.03125 C 0.0625 -5.1875 0.09375 -5.285156 0.15625 -5.328125 C 0.226562 -5.367188 0.375 -5.390625 0.59375 -5.390625 L 4.15625 -5.390625 C 4.382812 -5.390625 4.53125 -5.367188 4.59375 -5.328125 C 4.65625 -5.296875 4.6875 -5.195312 4.6875 -5.03125 Z M 4.6875 -4.328125 "/></g></g></g><g fill="#000000" fill-opacity="1"><g transform="translate(23.284826, 7.148613)"><g><path d="M 2.015625 -0.28125 C 2.203125 -0.289062 2.378906 -0.335938 2.546875 -0.421875 C 2.722656 -0.515625 2.863281 -0.644531 2.96875 -0.8125 C 3.082031 -0.988281 3.140625 -1.207031 3.140625 -1.46875 L 3.140625 -1.5 C 3.128906 -1.769531 3.03125 -1.972656 2.84375 -2.109375 C 2.757812 -2.171875 2.65625 -2.21875 2.53125 -2.25 C 2.269531 -2.320312 2 -2.375 1.71875 -2.40625 C 1.4375 -2.4375 1.164062 -2.515625 0.90625 -2.640625 C 0.664062 -2.753906 0.484375 -2.921875 0.359375 -3.140625 C 0.242188 -3.359375 0.1875 -3.59375 0.1875 -3.84375 C 0.1875 -4.332031 0.359375 -4.734375 0.703125 -5.046875 C 1.066406 -5.378906 1.519531 -5.546875 2.0625 -5.546875 L 2.171875 -5.546875 C 2.753906 -5.523438 3.265625 -5.375 3.703125 -5.09375 L 3.609375 -4.25 C 3.597656 -4.15625 3.539062 -4.109375 3.4375 -4.109375 L 3.421875 -4.109375 C 3.347656 -4.117188 3.285156 -4.171875 3.234375 -4.265625 C 3.140625 -4.484375 2.992188 -4.664062 2.796875 -4.8125 C 2.609375 -4.96875 2.40625 -5.050781 2.1875 -5.0625 L 2.125 -5.0625 C 1.914062 -5.0625 1.726562 -5.019531 1.5625 -4.9375 C 1.445312 -4.882812 1.359375 -4.828125 1.296875 -4.765625 C 1.242188 -4.691406 1.191406 -4.609375 1.140625 -4.515625 C 1.097656 -4.441406 1.066406 -4.351562 1.046875 -4.25 C 1.035156 -4.164062 1.03125 -4.09375 1.03125 -4.03125 C 1.03125 -3.9375 1.039062 -3.847656 1.0625 -3.765625 C 1.113281 -3.617188 1.195312 -3.503906 1.3125 -3.421875 C 1.394531 -3.359375 1.488281 -3.3125 1.59375 -3.28125 C 1.65625 -3.269531 1.726562 -3.253906 1.8125 -3.234375 C 1.90625 -3.222656 2.003906 -3.207031 2.109375 -3.1875 C 2.242188 -3.164062 2.394531 -3.140625 2.5625 -3.109375 C 2.726562 -3.085938 2.890625 -3.054688 3.046875 -3.015625 C 3.304688 -2.921875 3.503906 -2.804688 3.640625 -2.671875 C 3.734375 -2.554688 3.8125 -2.429688 3.875 -2.296875 C 3.945312 -2.128906 3.984375 -1.941406 3.984375 -1.734375 C 3.984375 -1.171875 3.753906 -0.707031 3.296875 -0.34375 C 3.066406 -0.144531 2.804688 0 2.515625 0.09375 C 2.285156 0.164062 2.039062 0.207031 1.78125 0.21875 C 1.726562 0.21875 1.671875 0.21875 1.609375 0.21875 C 1.253906 0.21875 0.894531 0.164062 0.53125 0.0625 L 0.15625 -0.96875 C 0.144531 -0.988281 0.140625 -1.007812 0.140625 -1.03125 C 0.140625 -1.070312 0.15625 -1.109375 0.1875 -1.140625 C 0.21875 -1.203125 0.273438 -1.234375 0.359375 -1.234375 C 0.429688 -1.210938 0.488281 -1.160156 0.53125 -1.078125 C 0.6875 -0.742188 0.875 -0.519531 1.09375 -0.40625 C 1.28125 -0.320312 1.519531 -0.28125 1.8125 -0.28125 C 1.875 -0.28125 1.941406 -0.28125 2.015625 -0.28125 Z M 2.015625 -0.28125 "/></g></g></g><g fill="#000000" fill-opacity="1"><g transform="translate(23.201612, 11.883184)"><g><path d="M 2.28125 0.15625 C 1.71875 0.15625 1.210938 -0.0234375 0.765625 -0.390625 C 0.328125 -0.753906 0.109375 -1.253906 0.109375 -1.890625 C 0.109375 -2.503906 0.320312 -3 0.75 -3.375 C 1.175781 -3.757812 1.6875 -3.953125 2.28125 -3.953125 C 2.5 -3.953125 2.726562 -3.925781 2.96875 -3.875 C 3.207031 -3.820312 3.441406 -3.722656 3.671875 -3.578125 L 3.609375 -2.984375 C 3.597656 -2.921875 3.554688 -2.890625 3.484375 -2.890625 C 3.429688 -2.890625 3.382812 -2.925781 3.34375 -3 C 3.238281 -3.226562 3.101562 -3.378906 2.9375 -3.453125 C 2.78125 -3.535156 2.5625 -3.578125 2.28125 -3.578125 C 1.90625 -3.578125 1.566406 -3.441406 1.265625 -3.171875 C 0.960938 -2.910156 0.8125 -2.484375 0.8125 -1.890625 C 0.8125 -1.503906 0.953125 -1.132812 1.234375 -0.78125 C 1.515625 -0.4375 1.863281 -0.253906 2.28125 -0.234375 C 2.320312 -0.222656 2.363281 -0.21875 2.40625 -0.21875 C 2.625 -0.21875 2.800781 -0.253906 2.9375 -0.328125 C 3.101562 -0.398438 3.238281 -0.554688 3.34375 -0.796875 C 3.382812 -0.859375 3.425781 -0.894531 3.46875 -0.90625 L 3.5 -0.90625 C 3.5625 -0.90625 3.597656 -0.875 3.609375 -0.8125 L 3.609375 -0.734375 L 3.375 -0.046875 C 3.175781 0.0351562 2.984375 0.0859375 2.796875 0.109375 C 2.617188 0.140625 2.445312 0.15625 2.28125 0.15625 Z M 2.28125 0.15625 "/></g></g></g><g fill="#000000" fill-opacity="1"><g transform="translate(23.201612, 17.399309)"><g><path d="M 2.171875 -3.609375 C 1.648438 -3.597656 1.285156 -3.425781 1.078125 -3.09375 C 0.867188 -2.769531 0.765625 -2.367188 0.765625 -1.890625 C 0.765625 -1.410156 0.894531 -1.003906 1.15625 -0.671875 C 1.414062 -0.347656 1.753906 -0.179688 2.171875 -0.171875 L 2.1875 -0.171875 C 2.59375 -0.171875 2.925781 -0.347656 3.1875 -0.703125 C 3.457031 -1.054688 3.59375 -1.445312 3.59375 -1.875 L 3.59375 -1.890625 C 3.582031 -2.328125 3.46875 -2.722656 3.25 -3.078125 C 3.03125 -3.429688 2.671875 -3.609375 2.171875 -3.609375 Z M 2.171875 -3.953125 L 2.203125 -3.953125 C 2.804688 -3.953125 3.3125 -3.765625 3.71875 -3.390625 C 4.101562 -3.046875 4.296875 -2.597656 4.296875 -2.046875 C 4.296875 -1.992188 4.296875 -1.941406 4.296875 -1.890625 C 4.253906 -1.265625 4.03125 -0.773438 3.625 -0.421875 C 3.226562 -0.078125 2.742188 0.109375 2.171875 0.140625 C 2.128906 0.148438 2.085938 0.15625 2.046875 0.15625 C 1.523438 0.15625 1.066406 -0.0234375 0.671875 -0.390625 C 0.265625 -0.742188 0.0625 -1.210938 0.0625 -1.796875 C 0.0625 -1.828125 0.0625 -1.863281 0.0625 -1.90625 C 0.0820312 -2.519531 0.285156 -3.007812 0.671875 -3.375 C 1.054688 -3.75 1.554688 -3.941406 2.171875 -3.953125 Z M 2.171875 -3.953125 "/></g></g></g><g fill="#000000" fill-opacity="1"><g transform="translate(23.201612, 22.915434)"><g><path d="M 3.453125 -0.21875 C 3.484375 -0.195312 3.535156 -0.179688 3.609375 -0.171875 C 3.691406 -0.160156 3.734375 -0.125 3.734375 -0.0625 L 3.734375 -0.046875 C 3.722656 0.015625 3.679688 0.046875 3.609375 0.046875 L 2.890625 0.046875 C 2.847656 0.046875 2.769531 -0.0234375 2.65625 -0.171875 C 2.550781 -0.316406 2.425781 -0.484375 2.28125 -0.671875 C 2.144531 -0.867188 2.003906 -1.066406 1.859375 -1.265625 C 1.710938 -1.472656 1.597656 -1.632812 1.515625 -1.75 L 1.1875 -1.75 L 1.1875 -0.390625 C 1.1875 -0.296875 1.226562 -0.234375 1.3125 -0.203125 C 1.40625 -0.171875 1.453125 -0.125 1.453125 -0.0625 C 1.453125 0.0078125 1.410156 0.046875 1.328125 0.046875 L 0.421875 0.046875 C 0.335938 0.046875 0.296875 0.0078125 0.296875 -0.0625 C 0.296875 -0.125 0.335938 -0.171875 0.421875 -0.203125 C 0.515625 -0.234375 0.5625 -0.296875 0.5625 -0.390625 L 0.5625 -3.390625 C 0.5625 -3.472656 0.515625 -3.53125 0.421875 -3.5625 C 0.335938 -3.601562 0.296875 -3.65625 0.296875 -3.71875 C 0.296875 -3.789062 0.335938 -3.828125 0.421875 -3.828125 L 2 -3.828125 C 2.195312 -3.828125 2.398438 -3.789062 2.609375 -3.71875 C 2.828125 -3.65625 2.992188 -3.523438 3.109375 -3.328125 C 3.203125 -3.160156 3.25 -2.96875 3.25 -2.75 C 3.25 -2.539062 3.1875 -2.347656 3.0625 -2.171875 C 2.96875 -2.035156 2.832031 -1.929688 2.65625 -1.859375 C 2.488281 -1.796875 2.367188 -1.757812 2.296875 -1.75 Z M 1.1875 -3.5 L 1.1875 -2.03125 L 1.734375 -2.03125 C 1.859375 -2.03125 1.976562 -2.046875 2.09375 -2.078125 C 2.207031 -2.117188 2.304688 -2.179688 2.390625 -2.265625 C 2.523438 -2.390625 2.59375 -2.5625 2.59375 -2.78125 C 2.59375 -2.988281 2.523438 -3.160156 2.390625 -3.296875 C 2.242188 -3.429688 2.046875 -3.5 1.796875 -3.5 Z M 1.1875 -3.5 "/></g></g></g><g fill="#000000" fill-opacity="1"><g transform="translate(23.201612, 28.431559)"><g><path d="M 1.234375 -0.3125 L 2.328125 -0.3125 C 2.472656 -0.3125 2.597656 -0.367188 2.703125 -0.484375 C 2.804688 -0.609375 2.890625 -0.707031 2.953125 -0.78125 C 3.003906 -0.832031 3.050781 -0.859375 3.09375 -0.859375 C 3.164062 -0.859375 3.203125 -0.820312 3.203125 -0.75 C 3.203125 -0.71875 3.203125 -0.695312 3.203125 -0.6875 L 3 0.046875 L 0.46875 0.046875 C 0.382812 0.046875 0.34375 0.0078125 0.34375 -0.0625 C 0.34375 -0.125 0.390625 -0.171875 0.484375 -0.203125 C 0.578125 -0.234375 0.625 -0.296875 0.625 -0.390625 L 0.625 -3.390625 C 0.625 -3.484375 0.578125 -3.546875 0.484375 -3.578125 C 0.390625 -3.609375 0.34375 -3.65625 0.34375 -3.71875 C 0.34375 -3.789062 0.382812 -3.828125 0.46875 -3.828125 L 3.046875 -3.828125 L 3.046875 -3.09375 C 3.046875 -3.019531 3.003906 -2.984375 2.921875 -2.984375 C 2.867188 -2.984375 2.816406 -3.023438 2.765625 -3.109375 C 2.671875 -3.234375 2.59375 -3.328125 2.53125 -3.390625 C 2.476562 -3.453125 2.410156 -3.484375 2.328125 -3.484375 L 1.234375 -3.484375 L 1.234375 -2.125 L 1.796875 -2.125 C 1.878906 -2.125 1.9375 -2.171875 1.96875 -2.265625 C 2 -2.359375 2.054688 -2.40625 2.140625 -2.40625 C 2.222656 -2.40625 2.265625 -2.367188 2.265625 -2.296875 L 2.265625 -1.609375 C 2.265625 -1.535156 2.222656 -1.5 2.140625 -1.5 C 2.066406 -1.5 2.007812 -1.539062 1.96875 -1.625 C 1.925781 -1.71875 1.863281 -1.765625 1.78125 -1.765625 L 1.234375 -1.765625 Z M 1.234375 -0.3125 "/></g></g></g></svg>